<svg xmlns="http://www.w3.org/2000/svg" width="46.058" height="43.886" viewBox="0 0 46.058 43.886"><defs><style>.a{fill:#666;}</style></defs><g transform="translate(0 0)"><path class="a" d="M9.127-887.165a8.853,8.853,0,0,0-6.959,7.177c-.065.435-.12,6.013-.12,15.049-.022,14.168-.011,14.364.207,15.223A8.807,8.807,0,0,0,7.866-843.7l.87.294,16.039.033c15.712.022,16.049.022,16.908-.2a8.685,8.685,0,0,0,5.546-4.512c.924-1.87.87-1.076.87-13.537,0-10.232-.011-11.1-.2-11.863a8.922,8.922,0,0,0-6.154-6.328c-.8-.217-1.087-.228-8.786-.272l-7.949-.033-.141-.565a8.871,8.871,0,0,0-5.752-6.187l-1.033-.359-4.241-.022C11.519-887.263,9.388-887.219,9.127-887.165Zm8.416,2.262a7.579,7.579,0,0,1,4.393,3.73,9.882,9.882,0,0,1,.446.979c0,.043-2.968.087-6.6.12-7.361.054-7.209.032-8.884.826a9.848,9.848,0,0,0-1.642,1.022l-.761.62L4.462-878a7.358,7.358,0,0,1,.816-3.2,6.737,6.737,0,0,1,3.186-3.2c1.522-.75,2.033-.826,5.437-.783C16.543-885.153,16.847-885.132,17.543-884.9Zm14.951,7.111c8.275.022,8.318.022,9.036.261a7.059,7.059,0,0,1,3.458,2.805,6.654,6.654,0,0,1,.816,2.36l.076.522H4.441v-.739a4.432,4.432,0,0,1,1.011-2.664,6.044,6.044,0,0,1,2.305-1.99c1.294-.641,1.359-.641,9.253-.62C20.947-877.836,27.917-877.814,32.494-877.792Zm13.374,17.55c0,7.4-.033,9.025-.163,9.656a6.518,6.518,0,0,1-4.458,4.806c-.62.185-1.414.2-16.2.2H9.5l-.761-.239a6.17,6.17,0,0,1-3.425-2.6,7.451,7.451,0,0,1-.783-1.6c-.283-.892-.294-1.653-.141-13.375l.076-5.73H45.869Z" transform="translate(-2.041 887.254)"/></g></svg>