<svg xmlns="http://www.w3.org/2000/svg" width="14.167" height="14.167" viewBox="0 0 14.167 14.167"><defs><style>.a{fill:#ed1650;}</style></defs><g transform="translate(0 0)"><path class="a" d="M100.829-549.438a.4.4,0,0,0-.277.224c-.05.1-.052.154-.052,1.3s0,1.205.052,1.3c.086.17.17.2.7.214a3.193,3.193,0,0,0,1.01-.076c.128-.078.133-.143.13-1.437a10.908,10.908,0,0,0-.031-1.294c-.042-.117-.13-.18-.305-.209A8.614,8.614,0,0,0,100.829-549.438Z" transform="translate(-97.992 549.451)"/><path class="a" d="M390.8-549.481a.566.566,0,0,0-.157.07c-.149.11-.146.094-.146,1.469,0,1.184,0,1.273.047,1.341.094.143.175.156.879.159.587,0,.647-.005.743-.052a.326.326,0,0,0,.157-.156c.05-.1.052-.156.052-1.3a5.3,5.3,0,0,0-.044-1.3c-.055-.12-.133-.172-.31-.2A8.216,8.216,0,0,0,390.8-549.481Z" transform="translate(-380.719 549.494)"/><path class="a" d="M1.027-505.156a.536.536,0,0,0-.481.42C.5-504.6.5-504.247.5-498.716c0,5.737,0,5.876.048,6.025.1.319.315.44.844.479.411.031,11.986.031,12.4,0,.547-.039.729-.139.824-.451.043-.149.045-.4.045-6.041,0-5.75,0-5.889-.048-6.038a.569.569,0,0,0-.368-.392,2.924,2.924,0,0,0-.774-.057l-.638-.01v1.092c0,1.216,0,1.208-.174,1.329-.212.142-.262.147-1.608.147-1.218,0-1.24,0-1.311-.054-.126-.1-.131-.139-.131-1.37l0-1.139H5.557l-.008,1.177c-.008,1.334-.005,1.311-.192,1.368-.141.044-2.68.041-2.8,0a.354.354,0,0,1-.139-.1c-.05-.072-.053-.1-.06-1.257l-.008-1.182-.585,0A4.52,4.52,0,0,0,1.027-505.156Zm11.812,7.406v3.709H2.353v-7.419H12.839Z" transform="translate(-0.5 506.356)"/><path class="a" d="M129.793-303.7a.388.388,0,0,0-.261.193c-.042.073-.047.162-.047.749,0,.976-.05.926.952.926.762,0,.811-.008.887-.157a2.7,2.7,0,0,0,.039-.77c0-.994.042-.95-.874-.957C130.153-303.721,129.837-303.714,129.793-303.7Z" transform="translate(-126.25 310.046)"/><path class="a" d="M244.781-303.886c-.271.073-.292.141-.292.942,0,.955-.044.913.952.913.9,0,.908-.005.968-.383a6.527,6.527,0,0,0-.026-1.252.336.336,0,0,0-.292-.227A7.064,7.064,0,0,0,244.781-303.886Z" transform="translate(-238.371 310.241)"/><path class="a" d="M361.433-303.694a.348.348,0,0,0-.271.258,4.864,4.864,0,0,0-.021.741c.01.91-.039.863.934.863,1,0,.952.047.952-.939,0-.97.031-.937-.887-.944A6.473,6.473,0,0,0,361.433-303.694Z" transform="translate(-352.095 310.042)"/><path class="a" d="M129.809-188.368a.34.34,0,0,0-.284.2,2.29,2.29,0,0,0-.044.749c0,.965-.055.913.952.913.822,0,.85-.005.9-.183a8.1,8.1,0,0,0,0-1.445c-.052-.146-.138-.19-.415-.211A7.394,7.394,0,0,0,129.809-188.368Z" transform="translate(-126.245 197.676)"/><path class="a" d="M244.86-188.418a.386.386,0,0,0-.31.2c-.044.089-.05.164-.05.738s.005.647.052.743c.089.177.117.183.913.183s.84-.008.918-.164c.042-.086.047-.17.047-.736,0-.869-.016-.9-.462-.939A7.759,7.759,0,0,0,244.86-188.418Z" transform="translate(-238.382 197.724)"/><path class="a" d="M361.829-188.388a.39.39,0,0,0-.282.172c-.042.063-.047.146-.047.751,0,.751.01.816.154.895.068.039.18.044.751.052.621.008.681.005.788-.042.175-.078.185-.133.185-.879,0-.869-.008-.887-.436-.926A7.365,7.365,0,0,0,361.829-188.388Z" transform="translate(-352.447 197.695)"/></g></svg>