<svg xmlns="http://www.w3.org/2000/svg" width="14.167" height="14.167" viewBox="0 0 14.167 14.167"><defs><style>.a{fill:#ed1650;}</style></defs><g transform="translate(0 0)"><path class="a" d="M99.389-464.874a1.167,1.167,0,0,0-.251.194c-.346.341-3.523,3.822-3.576,3.916a.711.711,0,0,0,.132.772.618.618,0,0,0,.716.091c.066-.037.676-.666,1.352-1.4L99-462.627l.016,3.532c.016,3.8.01,3.626.191,3.807a.533.533,0,0,0,.419.178.518.518,0,0,0,.416-.178c.188-.191.178.041.195-3.794l.016-3.551,1.2,1.3c.663.713,1.253,1.331,1.316,1.369a.659.659,0,0,0,.653-.019.633.633,0,0,0,.267-.472c.03-.316.069-.266-1.778-2.26-.943-1.016-1.781-1.916-1.86-2A.577.577,0,0,0,99.389-464.874Z" transform="translate(-92.515 464.922)"/><path class="a" d="M13.232-183.873a.434.434,0,0,0-.277.238c-.016.044-.029.891-.029,2.035,0,1.91,0,1.963-.064,2.063-.132.209.274.194-5.831.188l-5.541-.009-.087-.078c-.181-.159-.177-.119-.177-2.213v-1.935l-.074-.106c-.093-.134-.229-.181-.548-.181-.3,0-.448.05-.538.191-.064.1-.064.15-.064,2.694v2.588l.126.122.126.122h6.8c7.514,0,6.933.016,7.053-.2a13.366,13.366,0,0,0,.058-2.685c0-2.563,0-2.585-.068-2.672a.567.567,0,0,0-.529-.194A1.628,1.628,0,0,0,13.232-183.873Z" transform="translate(0 192.323)"/></g></svg>