<svg xmlns="http://www.w3.org/2000/svg" width="15.719" height="22.037" viewBox="0 0 15.719 22.037"><defs><style>.a{fill:#ed1650;}</style></defs><g transform="translate(-1040 -1518.839)"><g transform="translate(1040 1518.839)"><path class="a" d="M7.112-532.04a2.056,2.056,0,0,0-1.06.973l-.133.253H5.658a1.139,1.139,0,0,0-.849.294c-.244.244-.294.451-.294,1.222v.634l-1.562.012a5.724,5.724,0,0,0-1.794.1,1.5,1.5,0,0,0-1.044.862L0-527.434l.008,8.077.012,8.073.1.207a2.089,2.089,0,0,0,.862.82l.282.133,6.532.013c6.524.008,6.536.008,6.793-.079a1.6,1.6,0,0,0,1-.907l.128-.269v-16.071l-.1-.2a1.477,1.477,0,0,0-.679-.75c-.464-.244-.659-.269-2.3-.269H11.184l0-.116c0-.062-.017-.393-.033-.737-.025-.576-.037-.638-.141-.816A1.058,1.058,0,0,0,10-530.814H9.742l-.124-.261A1.915,1.915,0,0,0,8.5-532.06,2.6,2.6,0,0,0,7.112-532.04Zm1.06,1.251c.224.166.278.335.278.862v.48H9.858v1.243H5.84v-1.243H7.207v-.476a1.634,1.634,0,0,1,.058-.592,1,1,0,0,1,.356-.352A.829.829,0,0,1,8.172-530.789ZM4.6-527.459a1.3,1.3,0,0,0,.468.485,11.426,11.426,0,0,0,2.68.087c1.86.008,2.593,0,2.725-.037a1.1,1.1,0,0,0,.6-.518l.05-.145,1.537.012c1.69.013,1.669.013,1.9.282l.108.133-.008,7.8-.012,7.8-.124.133c-.249.261.2.244-6.673.244-6.975,0-6.424.021-6.685-.277l-.124-.141.008-7.8.012-7.8.1-.112c.236-.253.282-.261,1.951-.265l1.437,0Z" transform="translate(0 532.145)"/><path class="a" d="M119.711-366.909a16.093,16.093,0,0,0-1.694,2.415c-.845,1.276-1.545,2.324-1.549,2.332s-.294-.273-.638-.63c-.688-.7-.762-.75-1.156-.721a.637.637,0,0,0-.584.365.853.853,0,0,0-.012.7c.037.058.447.485.907.953s.878.9.924.957a.968.968,0,0,0,.758.278.48.48,0,0,0,.389-.161c.17-.162,3.691-5.372,3.753-5.555a1.234,1.234,0,0,0,.025-.377c-.029-.451-.253-.65-.725-.65A.764.764,0,0,0,119.711-366.909Z" transform="translate(-109.285 373.84)"/><path class="a" d="M61.4-166.81a.794.794,0,0,0-.447,1.209.974.974,0,0,0,.646.348.9.9,0,0,0,.762-.518.749.749,0,0,0-.472-1.036A.575.575,0,0,0,61.4-166.81Z" transform="translate(-58.301 181.993)"/><path class="a" d="M132.406-159.821a.6.6,0,0,0-.261.153.348.348,0,0,0-.145.315c0,.149.025.2.162.336l.162.162h4.689l.133-.12c.124-.108.137-.145.137-.348a.437.437,0,0,0-.348-.485C136.788-159.846,132.659-159.858,132.406-159.821Z" transform="translate(-126.532 175.264)"/><path class="a" d="M62.336-101.826a.751.751,0,0,0-.336.65.791.791,0,0,0,.891.812.961.961,0,0,0,.683-.787.971.971,0,0,0-.1-.335.781.781,0,0,0-.7-.46A.452.452,0,0,0,62.336-101.826Z" transform="translate(-59.432 119.772)"/><path class="a" d="M133.4-94.72a.5.5,0,0,0-.033.9c.116.075.236.079,2.357.079a16.91,16.91,0,0,0,2.336-.054.518.518,0,0,0,.273-.489.363.363,0,0,0-.137-.336l-.133-.137-2.27-.008A15.627,15.627,0,0,0,133.4-94.72Z" transform="translate(-127.58 112.885)"/></g></g></svg>